<svg xmlns="http://www.w3.org/2000/svg" width="120" height="120.405" viewBox="0 0 112 112.5" xmlns:v="https://vecta.io/nano"><path d="M6.25 50L25 68.75 43.75 50 25 31.25 6.25 50M25 25l25 25-25 25L0 50l25-25m0 31.25L31.25 50 25 43.75 18.75 50 25 56.25M12.5 50L25 37.5 37.5 50 25 62.5 12.5 50m68.75 31.25l-25-25-25 25 25 25 25-25m6.25 0L56.25 112.5 25 81.25 56.25 50 87.5 81.25m-18.75 0l-12.5-12.5-12.5 12.5 12.5 12.5 12.5-12.5m6.25 0L56.25 100 37.5 81.25 56.25 62.5 75 81.25m-12.5 0l-6.25 6.25L50 81.25 56.25 75l6.25 6.25m-18.75-62.5l12.5 12.5 12.5-12.5-12.5-12.5-12.5 12.5m-6.25 0L56.25 0 75 18.75 56.25 37.5 37.5 18.75m12.5 0l6.25-6.25 6.25 6.25L56.25 25 50 18.75m37.5 25L81.25 50l6.25 6.25L93.75 50l-6.25-6.25M100 50L87.5 62.5 75 50l12.5-12.5L100 50" fill-rule="evenodd"/></svg>